<mxfile host="app.diagrams.net" modified="2023-03-23T20:30:05.982Z" agent="Mozilla/5.0 (Windows NT 10.0; Win64; x64) AppleWebKit/537.36 (KHTML, like Gecko) Chrome/111.0.0.0 Safari/537.36" etag="fE9LaNQAaJmbQNUh6BtS" version="21.1.0" type="device">
  <diagram id="C5RBs43oDa-KdzZeNtuy" name="Page-1">
    <mxGraphModel dx="1927" dy="581" grid="1" gridSize="10" guides="1" tooltips="1" connect="1" arrows="1" fold="1" page="1" pageScale="1" pageWidth="827" pageHeight="1169" math="0" shadow="0">
      <root>
        <mxCell id="WIyWlLk6GJQsqaUBKTNV-0" />
        <mxCell id="WIyWlLk6GJQsqaUBKTNV-1" parent="WIyWlLk6GJQsqaUBKTNV-0" />
        <mxCell id="17Kr9N83lYtVt4JSZyiP-0" value="pecas" style="swimlane;fontStyle=0;childLayout=stackLayout;horizontal=1;startSize=30;horizontalStack=0;resizeParent=1;resizeParentMax=0;resizeLast=0;collapsible=1;marginBottom=0;whiteSpace=wrap;html=1;" parent="WIyWlLk6GJQsqaUBKTNV-1" vertex="1">
          <mxGeometry x="25" y="90" width="150" height="150" as="geometry" />
        </mxCell>
        <mxCell id="17Kr9N83lYtVt4JSZyiP-1" value="numero - PK" style="text;strokeColor=none;fillColor=none;align=left;verticalAlign=middle;spacingLeft=4;spacingRight=4;overflow=hidden;points=[[0,0.5],[1,0.5]];portConstraint=eastwest;rotatable=0;whiteSpace=wrap;html=1;" parent="17Kr9N83lYtVt4JSZyiP-0" vertex="1">
          <mxGeometry y="30" width="150" height="30" as="geometry" />
        </mxCell>
        <mxCell id="17Kr9N83lYtVt4JSZyiP-2" value="peso" style="text;strokeColor=none;fillColor=none;align=left;verticalAlign=middle;spacingLeft=4;spacingRight=4;overflow=hidden;points=[[0,0.5],[1,0.5]];portConstraint=eastwest;rotatable=0;whiteSpace=wrap;html=1;" parent="17Kr9N83lYtVt4JSZyiP-0" vertex="1">
          <mxGeometry y="60" width="150" height="30" as="geometry" />
        </mxCell>
        <mxCell id="17Kr9N83lYtVt4JSZyiP-3" value="cor" style="text;strokeColor=none;fillColor=none;align=left;verticalAlign=middle;spacingLeft=4;spacingRight=4;overflow=hidden;points=[[0,0.5],[1,0.5]];portConstraint=eastwest;rotatable=0;whiteSpace=wrap;html=1;" parent="17Kr9N83lYtVt4JSZyiP-0" vertex="1">
          <mxGeometry y="90" width="150" height="30" as="geometry" />
        </mxCell>
        <mxCell id="17Kr9N83lYtVt4JSZyiP-128" value="numero_fornecedor - PK" style="text;strokeColor=none;fillColor=none;align=left;verticalAlign=middle;spacingLeft=4;spacingRight=4;overflow=hidden;points=[[0,0.5],[1,0.5]];portConstraint=eastwest;rotatable=0;whiteSpace=wrap;html=1;" parent="17Kr9N83lYtVt4JSZyiP-0" vertex="1">
          <mxGeometry y="120" width="150" height="30" as="geometry" />
        </mxCell>
        <mxCell id="17Kr9N83lYtVt4JSZyiP-4" value="projeto" style="swimlane;fontStyle=0;childLayout=stackLayout;horizontal=1;startSize=30;horizontalStack=0;resizeParent=1;resizeParentMax=0;resizeLast=0;collapsible=1;marginBottom=0;whiteSpace=wrap;html=1;" parent="WIyWlLk6GJQsqaUBKTNV-1" vertex="1">
          <mxGeometry x="334" y="50" width="188" height="210" as="geometry" />
        </mxCell>
        <mxCell id="17Kr9N83lYtVt4JSZyiP-5" value="numero - PK" style="text;strokeColor=none;fillColor=none;align=left;verticalAlign=middle;spacingLeft=4;spacingRight=4;overflow=hidden;points=[[0,0.5],[1,0.5]];portConstraint=eastwest;rotatable=0;whiteSpace=wrap;html=1;" parent="17Kr9N83lYtVt4JSZyiP-4" vertex="1">
          <mxGeometry y="30" width="188" height="30" as="geometry" />
        </mxCell>
        <mxCell id="17Kr9N83lYtVt4JSZyiP-6" value="orcamento" style="text;strokeColor=none;fillColor=none;align=left;verticalAlign=middle;spacingLeft=4;spacingRight=4;overflow=hidden;points=[[0,0.5],[1,0.5]];portConstraint=eastwest;rotatable=0;whiteSpace=wrap;html=1;" parent="17Kr9N83lYtVt4JSZyiP-4" vertex="1">
          <mxGeometry y="60" width="188" height="30" as="geometry" />
        </mxCell>
        <mxCell id="17Kr9N83lYtVt4JSZyiP-80" value="data_inicio" style="text;strokeColor=none;fillColor=none;align=left;verticalAlign=middle;spacingLeft=4;spacingRight=4;overflow=hidden;points=[[0,0.5],[1,0.5]];portConstraint=eastwest;rotatable=0;whiteSpace=wrap;html=1;" parent="17Kr9N83lYtVt4JSZyiP-4" vertex="1">
          <mxGeometry y="90" width="188" height="30" as="geometry" />
        </mxCell>
        <mxCell id="17Kr9N83lYtVt4JSZyiP-81" value="data_termino" style="text;strokeColor=none;fillColor=none;align=left;verticalAlign=middle;spacingLeft=4;spacingRight=4;overflow=hidden;points=[[0,0.5],[1,0.5]];portConstraint=eastwest;rotatable=0;whiteSpace=wrap;html=1;" parent="17Kr9N83lYtVt4JSZyiP-4" vertex="1">
          <mxGeometry y="120" width="188" height="30" as="geometry" />
        </mxCell>
        <mxCell id="17Kr9N83lYtVt4JSZyiP-108" value="pecas_projeto - PK" style="text;strokeColor=none;fillColor=none;align=left;verticalAlign=middle;spacingLeft=4;spacingRight=4;overflow=hidden;points=[[0,0.5],[1,0.5]];portConstraint=eastwest;rotatable=0;whiteSpace=wrap;html=1;" parent="17Kr9N83lYtVt4JSZyiP-4" vertex="1">
          <mxGeometry y="150" width="188" height="30" as="geometry" />
        </mxCell>
        <mxCell id="17Kr9N83lYtVt4JSZyiP-109" value="projeto_funcionarios - PK" style="text;strokeColor=none;fillColor=none;align=left;verticalAlign=middle;spacingLeft=4;spacingRight=4;overflow=hidden;points=[[0,0.5],[1,0.5]];portConstraint=eastwest;rotatable=0;whiteSpace=wrap;html=1;" parent="17Kr9N83lYtVt4JSZyiP-4" vertex="1">
          <mxGeometry y="180" width="188" height="30" as="geometry" />
        </mxCell>
        <mxCell id="17Kr9N83lYtVt4JSZyiP-8" value="fornecedor" style="swimlane;fontStyle=0;childLayout=stackLayout;horizontal=1;startSize=30;horizontalStack=0;resizeParent=1;resizeParentMax=0;resizeLast=0;collapsible=1;marginBottom=0;whiteSpace=wrap;html=1;" parent="WIyWlLk6GJQsqaUBKTNV-1" vertex="1">
          <mxGeometry x="358" y="360" width="140" height="120" as="geometry" />
        </mxCell>
        <mxCell id="17Kr9N83lYtVt4JSZyiP-9" value="numero - PK" style="text;strokeColor=none;fillColor=none;align=left;verticalAlign=middle;spacingLeft=4;spacingRight=4;overflow=hidden;points=[[0,0.5],[1,0.5]];portConstraint=eastwest;rotatable=0;whiteSpace=wrap;html=1;" parent="17Kr9N83lYtVt4JSZyiP-8" vertex="1">
          <mxGeometry y="30" width="140" height="30" as="geometry" />
        </mxCell>
        <mxCell id="17Kr9N83lYtVt4JSZyiP-10" value="codigo_endereco - FK" style="text;strokeColor=none;fillColor=none;align=left;verticalAlign=middle;spacingLeft=4;spacingRight=4;overflow=hidden;points=[[0,0.5],[1,0.5]];portConstraint=eastwest;rotatable=0;whiteSpace=wrap;html=1;" parent="17Kr9N83lYtVt4JSZyiP-8" vertex="1">
          <mxGeometry y="60" width="140" height="30" as="geometry" />
        </mxCell>
        <mxCell id="17Kr9N83lYtVt4JSZyiP-127" value="peca_fornecedor - FK" style="text;strokeColor=none;fillColor=none;align=left;verticalAlign=middle;spacingLeft=4;spacingRight=4;overflow=hidden;points=[[0,0.5],[1,0.5]];portConstraint=eastwest;rotatable=0;whiteSpace=wrap;html=1;" parent="17Kr9N83lYtVt4JSZyiP-8" vertex="1">
          <mxGeometry y="90" width="140" height="30" as="geometry" />
        </mxCell>
        <mxCell id="17Kr9N83lYtVt4JSZyiP-12" value="deposito" style="swimlane;fontStyle=0;childLayout=stackLayout;horizontal=1;startSize=30;horizontalStack=0;resizeParent=1;resizeParentMax=0;resizeLast=0;collapsible=1;marginBottom=0;whiteSpace=wrap;html=1;" parent="WIyWlLk6GJQsqaUBKTNV-1" vertex="1">
          <mxGeometry x="-210" y="360" width="140" height="120" as="geometry" />
        </mxCell>
        <mxCell id="17Kr9N83lYtVt4JSZyiP-13" value="numero - PK" style="text;strokeColor=none;fillColor=none;align=left;verticalAlign=middle;spacingLeft=4;spacingRight=4;overflow=hidden;points=[[0,0.5],[1,0.5]];portConstraint=eastwest;rotatable=0;whiteSpace=wrap;html=1;" parent="17Kr9N83lYtVt4JSZyiP-12" vertex="1">
          <mxGeometry y="30" width="140" height="30" as="geometry" />
        </mxCell>
        <mxCell id="17Kr9N83lYtVt4JSZyiP-14" value="codigo_endereco - FK" style="text;strokeColor=none;fillColor=none;align=left;verticalAlign=middle;spacingLeft=4;spacingRight=4;overflow=hidden;points=[[0,0.5],[1,0.5]];portConstraint=eastwest;rotatable=0;whiteSpace=wrap;html=1;" parent="17Kr9N83lYtVt4JSZyiP-12" vertex="1">
          <mxGeometry y="60" width="140" height="30" as="geometry" />
        </mxCell>
        <mxCell id="eZr9_VNXtuEZq6iqT6nK-1" value="pecas_deposito - FK" style="text;strokeColor=none;fillColor=none;align=left;verticalAlign=middle;spacingLeft=4;spacingRight=4;overflow=hidden;points=[[0,0.5],[1,0.5]];portConstraint=eastwest;rotatable=0;whiteSpace=wrap;html=1;" parent="17Kr9N83lYtVt4JSZyiP-12" vertex="1">
          <mxGeometry y="90" width="140" height="30" as="geometry" />
        </mxCell>
        <mxCell id="17Kr9N83lYtVt4JSZyiP-16" value="funcionario" style="swimlane;fontStyle=0;childLayout=stackLayout;horizontal=1;startSize=30;horizontalStack=0;resizeParent=1;resizeParentMax=0;resizeLast=0;collapsible=1;marginBottom=0;whiteSpace=wrap;html=1;" parent="WIyWlLk6GJQsqaUBKTNV-1" vertex="1">
          <mxGeometry x="727" y="100" width="140" height="120" as="geometry" />
        </mxCell>
        <mxCell id="17Kr9N83lYtVt4JSZyiP-24" value="numero - PK" style="text;strokeColor=none;fillColor=none;align=left;verticalAlign=middle;spacingLeft=4;spacingRight=4;overflow=hidden;points=[[0,0.5],[1,0.5]];portConstraint=eastwest;rotatable=0;whiteSpace=wrap;html=1;" parent="17Kr9N83lYtVt4JSZyiP-16" vertex="1">
          <mxGeometry y="30" width="140" height="30" as="geometry" />
        </mxCell>
        <mxCell id="17Kr9N83lYtVt4JSZyiP-17" value="salario" style="text;strokeColor=none;fillColor=none;align=left;verticalAlign=middle;spacingLeft=4;spacingRight=4;overflow=hidden;points=[[0,0.5],[1,0.5]];portConstraint=eastwest;rotatable=0;whiteSpace=wrap;html=1;" parent="17Kr9N83lYtVt4JSZyiP-16" vertex="1">
          <mxGeometry y="60" width="140" height="30" as="geometry" />
        </mxCell>
        <mxCell id="17Kr9N83lYtVt4JSZyiP-18" value="telefone" style="text;strokeColor=none;fillColor=none;align=left;verticalAlign=middle;spacingLeft=4;spacingRight=4;overflow=hidden;points=[[0,0.5],[1,0.5]];portConstraint=eastwest;rotatable=0;whiteSpace=wrap;html=1;" parent="17Kr9N83lYtVt4JSZyiP-16" vertex="1">
          <mxGeometry y="90" width="140" height="30" as="geometry" />
        </mxCell>
        <mxCell id="17Kr9N83lYtVt4JSZyiP-20" value="departamento" style="swimlane;fontStyle=0;childLayout=stackLayout;horizontal=1;startSize=30;horizontalStack=0;resizeParent=1;resizeParentMax=0;resizeLast=0;collapsible=1;marginBottom=0;whiteSpace=wrap;html=1;" parent="WIyWlLk6GJQsqaUBKTNV-1" vertex="1">
          <mxGeometry x="867" y="270" width="140" height="90" as="geometry" />
        </mxCell>
        <mxCell id="17Kr9N83lYtVt4JSZyiP-25" value="numero - PK" style="text;strokeColor=none;fillColor=none;align=left;verticalAlign=middle;spacingLeft=4;spacingRight=4;overflow=hidden;points=[[0,0.5],[1,0.5]];portConstraint=eastwest;rotatable=0;whiteSpace=wrap;html=1;" parent="17Kr9N83lYtVt4JSZyiP-20" vertex="1">
          <mxGeometry y="30" width="140" height="30" as="geometry" />
        </mxCell>
        <mxCell id="17Kr9N83lYtVt4JSZyiP-21" value="setor" style="text;strokeColor=none;fillColor=none;align=left;verticalAlign=middle;spacingLeft=4;spacingRight=4;overflow=hidden;points=[[0,0.5],[1,0.5]];portConstraint=eastwest;rotatable=0;whiteSpace=wrap;html=1;" parent="17Kr9N83lYtVt4JSZyiP-20" vertex="1">
          <mxGeometry y="60" width="140" height="30" as="geometry" />
        </mxCell>
        <mxCell id="17Kr9N83lYtVt4JSZyiP-26" value="" style="endArrow=none;html=1;rounded=0;" parent="WIyWlLk6GJQsqaUBKTNV-1" source="17Kr9N83lYtVt4JSZyiP-33" target="17Kr9N83lYtVt4JSZyiP-20" edge="1">
          <mxGeometry width="50" height="50" relative="1" as="geometry">
            <mxPoint x="937" y="160" as="sourcePoint" />
            <mxPoint x="1050" y="120" as="targetPoint" />
            <Array as="points">
              <mxPoint x="940" y="140" />
            </Array>
          </mxGeometry>
        </mxCell>
        <mxCell id="17Kr9N83lYtVt4JSZyiP-63" value="endereco" style="swimlane;fontStyle=0;childLayout=stackLayout;horizontal=1;startSize=30;horizontalStack=0;resizeParent=1;resizeParentMax=0;resizeLast=0;collapsible=1;marginBottom=0;whiteSpace=wrap;html=1;" parent="WIyWlLk6GJQsqaUBKTNV-1" vertex="1">
          <mxGeometry x="55" y="545" width="140" height="270" as="geometry" />
        </mxCell>
        <mxCell id="17Kr9N83lYtVt4JSZyiP-64" value="codigo - PK" style="text;strokeColor=none;fillColor=none;align=left;verticalAlign=middle;spacingLeft=4;spacingRight=4;overflow=hidden;points=[[0,0.5],[1,0.5]];portConstraint=eastwest;rotatable=0;whiteSpace=wrap;html=1;" parent="17Kr9N83lYtVt4JSZyiP-63" vertex="1">
          <mxGeometry y="30" width="140" height="30" as="geometry" />
        </mxCell>
        <mxCell id="17Kr9N83lYtVt4JSZyiP-71" value="CEP" style="text;strokeColor=none;fillColor=none;align=left;verticalAlign=middle;spacingLeft=4;spacingRight=4;overflow=hidden;points=[[0,0.5],[1,0.5]];portConstraint=eastwest;rotatable=0;whiteSpace=wrap;html=1;" parent="17Kr9N83lYtVt4JSZyiP-63" vertex="1">
          <mxGeometry y="60" width="140" height="30" as="geometry" />
        </mxCell>
        <mxCell id="17Kr9N83lYtVt4JSZyiP-65" value="pais" style="text;strokeColor=none;fillColor=none;align=left;verticalAlign=middle;spacingLeft=4;spacingRight=4;overflow=hidden;points=[[0,0.5],[1,0.5]];portConstraint=eastwest;rotatable=0;whiteSpace=wrap;html=1;" parent="17Kr9N83lYtVt4JSZyiP-63" vertex="1">
          <mxGeometry y="90" width="140" height="30" as="geometry" />
        </mxCell>
        <mxCell id="17Kr9N83lYtVt4JSZyiP-66" value="estado" style="text;strokeColor=none;fillColor=none;align=left;verticalAlign=middle;spacingLeft=4;spacingRight=4;overflow=hidden;points=[[0,0.5],[1,0.5]];portConstraint=eastwest;rotatable=0;whiteSpace=wrap;html=1;" parent="17Kr9N83lYtVt4JSZyiP-63" vertex="1">
          <mxGeometry y="120" width="140" height="30" as="geometry" />
        </mxCell>
        <mxCell id="17Kr9N83lYtVt4JSZyiP-67" value="cidade" style="text;strokeColor=none;fillColor=none;align=left;verticalAlign=middle;spacingLeft=4;spacingRight=4;overflow=hidden;points=[[0,0.5],[1,0.5]];portConstraint=eastwest;rotatable=0;whiteSpace=wrap;html=1;" parent="17Kr9N83lYtVt4JSZyiP-63" vertex="1">
          <mxGeometry y="150" width="140" height="30" as="geometry" />
        </mxCell>
        <mxCell id="17Kr9N83lYtVt4JSZyiP-69" value="bairro" style="text;strokeColor=none;fillColor=none;align=left;verticalAlign=middle;spacingLeft=4;spacingRight=4;overflow=hidden;points=[[0,0.5],[1,0.5]];portConstraint=eastwest;rotatable=0;whiteSpace=wrap;html=1;" parent="17Kr9N83lYtVt4JSZyiP-63" vertex="1">
          <mxGeometry y="180" width="140" height="30" as="geometry" />
        </mxCell>
        <mxCell id="17Kr9N83lYtVt4JSZyiP-70" value="rua" style="text;strokeColor=none;fillColor=none;align=left;verticalAlign=middle;spacingLeft=4;spacingRight=4;overflow=hidden;points=[[0,0.5],[1,0.5]];portConstraint=eastwest;rotatable=0;whiteSpace=wrap;html=1;" parent="17Kr9N83lYtVt4JSZyiP-63" vertex="1">
          <mxGeometry y="210" width="140" height="30" as="geometry" />
        </mxCell>
        <mxCell id="17Kr9N83lYtVt4JSZyiP-68" value="complemento" style="text;strokeColor=none;fillColor=none;align=left;verticalAlign=middle;spacingLeft=4;spacingRight=4;overflow=hidden;points=[[0,0.5],[1,0.5]];portConstraint=eastwest;rotatable=0;whiteSpace=wrap;html=1;" parent="17Kr9N83lYtVt4JSZyiP-63" vertex="1">
          <mxGeometry y="240" width="140" height="30" as="geometry" />
        </mxCell>
        <mxCell id="17Kr9N83lYtVt4JSZyiP-72" value="" style="endArrow=none;html=1;rounded=0;" parent="WIyWlLk6GJQsqaUBKTNV-1" source="17Kr9N83lYtVt4JSZyiP-74" target="17Kr9N83lYtVt4JSZyiP-12" edge="1">
          <mxGeometry width="50" height="50" relative="1" as="geometry">
            <mxPoint x="-140" y="600" as="sourcePoint" />
            <mxPoint x="90" y="570" as="targetPoint" />
            <Array as="points" />
          </mxGeometry>
        </mxCell>
        <mxCell id="17Kr9N83lYtVt4JSZyiP-102" value="" style="endArrow=none;html=1;rounded=0;" parent="WIyWlLk6GJQsqaUBKTNV-1" source="17Kr9N83lYtVt4JSZyiP-106" target="17Kr9N83lYtVt4JSZyiP-16" edge="1">
          <mxGeometry width="50" height="50" relative="1" as="geometry">
            <mxPoint x="445" y="75" as="sourcePoint" />
            <mxPoint x="587.04" y="96.68000000000006" as="targetPoint" />
            <Array as="points" />
          </mxGeometry>
        </mxCell>
        <mxCell id="17Kr9N83lYtVt4JSZyiP-115" value="peca_fornecedor" style="swimlane;fontStyle=0;childLayout=stackLayout;horizontal=1;startSize=30;horizontalStack=0;resizeParent=1;resizeParentMax=0;resizeLast=0;collapsible=1;marginBottom=0;whiteSpace=wrap;html=1;" parent="WIyWlLk6GJQsqaUBKTNV-1" vertex="1">
          <mxGeometry x="20" y="360" width="160" height="90" as="geometry" />
        </mxCell>
        <mxCell id="17Kr9N83lYtVt4JSZyiP-117" value="numero_peca - FK" style="text;strokeColor=none;fillColor=none;align=left;verticalAlign=middle;spacingLeft=4;spacingRight=4;overflow=hidden;points=[[0,0.5],[1,0.5]];portConstraint=eastwest;rotatable=0;whiteSpace=wrap;html=1;" parent="17Kr9N83lYtVt4JSZyiP-115" vertex="1">
          <mxGeometry y="30" width="160" height="30" as="geometry" />
        </mxCell>
        <mxCell id="17Kr9N83lYtVt4JSZyiP-119" value="numero_fornecedor - FK" style="text;strokeColor=none;fillColor=none;align=left;verticalAlign=middle;spacingLeft=4;spacingRight=4;overflow=hidden;points=[[0,0.5],[1,0.5]];portConstraint=eastwest;rotatable=0;whiteSpace=wrap;html=1;" parent="17Kr9N83lYtVt4JSZyiP-115" vertex="1">
          <mxGeometry y="60" width="160" height="30" as="geometry" />
        </mxCell>
        <mxCell id="17Kr9N83lYtVt4JSZyiP-125" value="" style="endArrow=none;html=1;rounded=0;startArrow=classicThin;startFill=0;" parent="WIyWlLk6GJQsqaUBKTNV-1" source="17Kr9N83lYtVt4JSZyiP-115" target="17Kr9N83lYtVt4JSZyiP-0" edge="1">
          <mxGeometry width="50" height="50" relative="1" as="geometry">
            <mxPoint x="100" y="280" as="sourcePoint" />
            <mxPoint x="100" y="325" as="targetPoint" />
          </mxGeometry>
        </mxCell>
        <mxCell id="17Kr9N83lYtVt4JSZyiP-126" value="" style="endArrow=none;html=1;rounded=0;startArrow=classic;startFill=0;" parent="WIyWlLk6GJQsqaUBKTNV-1" source="17Kr9N83lYtVt4JSZyiP-115" target="17Kr9N83lYtVt4JSZyiP-8" edge="1">
          <mxGeometry width="50" height="50" relative="1" as="geometry">
            <mxPoint x="200" y="387" as="sourcePoint" />
            <mxPoint x="230" y="420" as="targetPoint" />
          </mxGeometry>
        </mxCell>
        <mxCell id="17Kr9N83lYtVt4JSZyiP-133" value="pecas_deposito" style="swimlane;fontStyle=0;childLayout=stackLayout;horizontal=1;startSize=30;horizontalStack=0;resizeParent=1;resizeParentMax=0;resizeLast=0;collapsible=1;marginBottom=0;whiteSpace=wrap;html=1;" parent="WIyWlLk6GJQsqaUBKTNV-1" vertex="1">
          <mxGeometry x="-210" y="105" width="140" height="120" as="geometry" />
        </mxCell>
        <mxCell id="17Kr9N83lYtVt4JSZyiP-134" value="codigo - PK" style="text;strokeColor=none;fillColor=none;align=left;verticalAlign=middle;spacingLeft=4;spacingRight=4;overflow=hidden;points=[[0,0.5],[1,0.5]];portConstraint=eastwest;rotatable=0;whiteSpace=wrap;html=1;" parent="17Kr9N83lYtVt4JSZyiP-133" vertex="1">
          <mxGeometry y="30" width="140" height="30" as="geometry" />
        </mxCell>
        <mxCell id="17Kr9N83lYtVt4JSZyiP-135" value="numero_peca - FK" style="text;strokeColor=none;fillColor=none;align=left;verticalAlign=middle;spacingLeft=4;spacingRight=4;overflow=hidden;points=[[0,0.5],[1,0.5]];portConstraint=eastwest;rotatable=0;whiteSpace=wrap;html=1;" parent="17Kr9N83lYtVt4JSZyiP-133" vertex="1">
          <mxGeometry y="60" width="140" height="30" as="geometry" />
        </mxCell>
        <mxCell id="eZr9_VNXtuEZq6iqT6nK-0" value="numero_deposito - FK" style="text;strokeColor=none;fillColor=none;align=left;verticalAlign=middle;spacingLeft=4;spacingRight=4;overflow=hidden;points=[[0,0.5],[1,0.5]];portConstraint=eastwest;rotatable=0;whiteSpace=wrap;html=1;" parent="17Kr9N83lYtVt4JSZyiP-133" vertex="1">
          <mxGeometry y="90" width="140" height="30" as="geometry" />
        </mxCell>
        <mxCell id="eZr9_VNXtuEZq6iqT6nK-2" value="fornecedor_ederecos" style="swimlane;fontStyle=0;childLayout=stackLayout;horizontal=1;startSize=30;horizontalStack=0;resizeParent=1;resizeParentMax=0;resizeLast=0;collapsible=1;marginBottom=0;whiteSpace=wrap;html=1;" parent="WIyWlLk6GJQsqaUBKTNV-1" vertex="1">
          <mxGeometry x="342" y="620" width="172" height="120" as="geometry" />
        </mxCell>
        <mxCell id="eZr9_VNXtuEZq6iqT6nK-3" value="codigo - PK" style="text;strokeColor=none;fillColor=none;align=left;verticalAlign=middle;spacingLeft=4;spacingRight=4;overflow=hidden;points=[[0,0.5],[1,0.5]];portConstraint=eastwest;rotatable=0;whiteSpace=wrap;html=1;" parent="eZr9_VNXtuEZq6iqT6nK-2" vertex="1">
          <mxGeometry y="30" width="172" height="30" as="geometry" />
        </mxCell>
        <mxCell id="eZr9_VNXtuEZq6iqT6nK-4" value="numero_fornecedor - FK" style="text;strokeColor=none;fillColor=none;align=left;verticalAlign=middle;spacingLeft=4;spacingRight=4;overflow=hidden;points=[[0,0.5],[1,0.5]];portConstraint=eastwest;rotatable=0;whiteSpace=wrap;html=1;" parent="eZr9_VNXtuEZq6iqT6nK-2" vertex="1">
          <mxGeometry y="60" width="172" height="30" as="geometry" />
        </mxCell>
        <mxCell id="eZr9_VNXtuEZq6iqT6nK-5" value="codigo_endereco - FK" style="text;strokeColor=none;fillColor=none;align=left;verticalAlign=middle;spacingLeft=4;spacingRight=4;overflow=hidden;points=[[0,0.5],[1,0.5]];portConstraint=eastwest;rotatable=0;whiteSpace=wrap;html=1;" parent="eZr9_VNXtuEZq6iqT6nK-2" vertex="1">
          <mxGeometry y="90" width="172" height="30" as="geometry" />
        </mxCell>
        <mxCell id="eZr9_VNXtuEZq6iqT6nK-10" value="" style="endArrow=none;html=1;rounded=0;" parent="WIyWlLk6GJQsqaUBKTNV-1" source="eZr9_VNXtuEZq6iqT6nK-13" target="17Kr9N83lYtVt4JSZyiP-8" edge="1">
          <mxGeometry width="50" height="50" relative="1" as="geometry">
            <mxPoint x="428" y="620" as="sourcePoint" />
            <mxPoint x="428" y="570" as="targetPoint" />
          </mxGeometry>
        </mxCell>
        <mxCell id="eZr9_VNXtuEZq6iqT6nK-11" value="" style="endArrow=none;html=1;rounded=0;" parent="WIyWlLk6GJQsqaUBKTNV-1" source="eZr9_VNXtuEZq6iqT6nK-14" target="eZr9_VNXtuEZq6iqT6nK-2" edge="1">
          <mxGeometry width="50" height="50" relative="1" as="geometry">
            <mxPoint x="195" y="680" as="sourcePoint" />
            <mxPoint x="230" y="680" as="targetPoint" />
          </mxGeometry>
        </mxCell>
        <mxCell id="eZr9_VNXtuEZq6iqT6nK-19" value="" style="endArrow=none;html=1;rounded=0;" parent="WIyWlLk6GJQsqaUBKTNV-1" source="eZr9_VNXtuEZq6iqT6nK-22" target="17Kr9N83lYtVt4JSZyiP-0" edge="1">
          <mxGeometry width="50" height="50" relative="1" as="geometry">
            <mxPoint x="-70" y="165" as="sourcePoint" />
            <mxPoint x="-49.246987951807114" y="166.97289156626516" as="targetPoint" />
          </mxGeometry>
        </mxCell>
        <mxCell id="eZr9_VNXtuEZq6iqT6nK-21" value="" style="endArrow=none;html=1;rounded=0;" parent="WIyWlLk6GJQsqaUBKTNV-1" source="17Kr9N83lYtVt4JSZyiP-12" target="17Kr9N83lYtVt4JSZyiP-133" edge="1">
          <mxGeometry width="50" height="50" relative="1" as="geometry">
            <mxPoint x="-140" y="310" as="sourcePoint" />
            <mxPoint x="-140" y="285" as="targetPoint" />
          </mxGeometry>
        </mxCell>
        <mxCell id="eZr9_VNXtuEZq6iqT6nK-23" value="N:1" style="whiteSpace=wrap;html=1;" parent="WIyWlLk6GJQsqaUBKTNV-1" vertex="1">
          <mxGeometry x="-160" y="280" width="40" height="30" as="geometry" />
        </mxCell>
        <mxCell id="eZr9_VNXtuEZq6iqT6nK-24" value="projeto_fornecedor" style="swimlane;fontStyle=0;childLayout=stackLayout;horizontal=1;startSize=30;horizontalStack=0;resizeParent=1;resizeParentMax=0;resizeLast=0;collapsible=1;marginBottom=0;whiteSpace=wrap;html=1;" parent="WIyWlLk6GJQsqaUBKTNV-1" vertex="1">
          <mxGeometry x="600" y="360" width="150" height="120" as="geometry" />
        </mxCell>
        <mxCell id="eZr9_VNXtuEZq6iqT6nK-25" value="codigo - PK" style="text;strokeColor=none;fillColor=none;align=left;verticalAlign=middle;spacingLeft=4;spacingRight=4;overflow=hidden;points=[[0,0.5],[1,0.5]];portConstraint=eastwest;rotatable=0;whiteSpace=wrap;html=1;" parent="eZr9_VNXtuEZq6iqT6nK-24" vertex="1">
          <mxGeometry y="30" width="150" height="30" as="geometry" />
        </mxCell>
        <mxCell id="eZr9_VNXtuEZq6iqT6nK-28" value="numero_projeto - FK" style="text;strokeColor=none;fillColor=none;align=left;verticalAlign=middle;spacingLeft=4;spacingRight=4;overflow=hidden;points=[[0,0.5],[1,0.5]];portConstraint=eastwest;rotatable=0;whiteSpace=wrap;html=1;" parent="eZr9_VNXtuEZq6iqT6nK-24" vertex="1">
          <mxGeometry y="60" width="150" height="30" as="geometry" />
        </mxCell>
        <mxCell id="eZr9_VNXtuEZq6iqT6nK-29" value="numero_fornecedor - FK" style="text;strokeColor=none;fillColor=none;align=left;verticalAlign=middle;spacingLeft=4;spacingRight=4;overflow=hidden;points=[[0,0.5],[1,0.5]];portConstraint=eastwest;rotatable=0;whiteSpace=wrap;html=1;" parent="eZr9_VNXtuEZq6iqT6nK-24" vertex="1">
          <mxGeometry y="90" width="150" height="30" as="geometry" />
        </mxCell>
        <mxCell id="eZr9_VNXtuEZq6iqT6nK-30" value="" style="endArrow=none;html=1;rounded=0;" parent="WIyWlLk6GJQsqaUBKTNV-1" source="eZr9_VNXtuEZq6iqT6nK-38" target="eZr9_VNXtuEZq6iqT6nK-24" edge="1">
          <mxGeometry width="50" height="50" relative="1" as="geometry">
            <mxPoint x="550" y="215" as="sourcePoint" />
            <mxPoint x="640" y="270" as="targetPoint" />
            <Array as="points">
              <mxPoint x="675" y="215" />
            </Array>
          </mxGeometry>
        </mxCell>
        <mxCell id="eZr9_VNXtuEZq6iqT6nK-34" value="" style="endArrow=none;html=1;rounded=0;exitX=1;exitY=0.5;exitDx=0;exitDy=0;" parent="WIyWlLk6GJQsqaUBKTNV-1" source="17Kr9N83lYtVt4JSZyiP-108" edge="1">
          <mxGeometry width="50" height="50" relative="1" as="geometry">
            <mxPoint x="522" y="215" as="sourcePoint" />
            <mxPoint x="635" y="215" as="targetPoint" />
            <Array as="points" />
          </mxGeometry>
        </mxCell>
        <mxCell id="eZr9_VNXtuEZq6iqT6nK-35" value="" style="endArrow=none;html=1;rounded=0;" parent="WIyWlLk6GJQsqaUBKTNV-1" source="eZr9_VNXtuEZq6iqT6nK-39" target="eZr9_VNXtuEZq6iqT6nK-24" edge="1">
          <mxGeometry width="50" height="50" relative="1" as="geometry">
            <mxPoint x="571.3213897937026" y="422.02497285559184" as="sourcePoint" />
            <mxPoint x="600" y="480" as="targetPoint" />
          </mxGeometry>
        </mxCell>
        <mxCell id="98H0wpjJwQihkLXOFDR--3" value="" style="endArrow=none;html=1;rounded=0;" edge="1" parent="WIyWlLk6GJQsqaUBKTNV-1" target="eZr9_VNXtuEZq6iqT6nK-38">
          <mxGeometry width="50" height="50" relative="1" as="geometry">
            <mxPoint x="550" y="215" as="sourcePoint" />
            <mxPoint x="675" y="360" as="targetPoint" />
            <Array as="points" />
          </mxGeometry>
        </mxCell>
        <mxCell id="eZr9_VNXtuEZq6iqT6nK-38" value="1:N" style="whiteSpace=wrap;html=1;" parent="WIyWlLk6GJQsqaUBKTNV-1" vertex="1">
          <mxGeometry x="650" y="200" width="40" height="30" as="geometry" />
        </mxCell>
        <mxCell id="98H0wpjJwQihkLXOFDR--4" value="" style="endArrow=none;html=1;rounded=0;" edge="1" parent="WIyWlLk6GJQsqaUBKTNV-1" source="17Kr9N83lYtVt4JSZyiP-8" target="eZr9_VNXtuEZq6iqT6nK-39">
          <mxGeometry width="50" height="50" relative="1" as="geometry">
            <mxPoint x="498" y="420" as="sourcePoint" />
            <mxPoint x="600" y="420" as="targetPoint" />
          </mxGeometry>
        </mxCell>
        <mxCell id="eZr9_VNXtuEZq6iqT6nK-39" value="1:N" style="whiteSpace=wrap;html=1;" parent="WIyWlLk6GJQsqaUBKTNV-1" vertex="1">
          <mxGeometry x="530" y="405" width="40" height="30" as="geometry" />
        </mxCell>
        <mxCell id="98H0wpjJwQihkLXOFDR--5" value="" style="endArrow=none;html=1;rounded=0;" edge="1" parent="WIyWlLk6GJQsqaUBKTNV-1" source="17Kr9N83lYtVt4JSZyiP-16" target="17Kr9N83lYtVt4JSZyiP-33">
          <mxGeometry width="50" height="50" relative="1" as="geometry">
            <mxPoint x="867" y="140" as="sourcePoint" />
            <mxPoint x="938" y="220" as="targetPoint" />
            <Array as="points" />
          </mxGeometry>
        </mxCell>
        <mxCell id="17Kr9N83lYtVt4JSZyiP-33" value="N:1" style="whiteSpace=wrap;html=1;" parent="WIyWlLk6GJQsqaUBKTNV-1" vertex="1">
          <mxGeometry x="917" y="145" width="40" height="30" as="geometry" />
        </mxCell>
        <mxCell id="98H0wpjJwQihkLXOFDR--6" value="" style="endArrow=none;html=1;rounded=0;" edge="1" parent="WIyWlLk6GJQsqaUBKTNV-1" source="eZr9_VNXtuEZq6iqT6nK-2" target="eZr9_VNXtuEZq6iqT6nK-13">
          <mxGeometry width="50" height="50" relative="1" as="geometry">
            <mxPoint x="428" y="620" as="sourcePoint" />
            <mxPoint x="428" y="480" as="targetPoint" />
          </mxGeometry>
        </mxCell>
        <mxCell id="eZr9_VNXtuEZq6iqT6nK-13" value="1:N" style="whiteSpace=wrap;html=1;" parent="WIyWlLk6GJQsqaUBKTNV-1" vertex="1">
          <mxGeometry x="408" y="530" width="40" height="30" as="geometry" />
        </mxCell>
        <mxCell id="98H0wpjJwQihkLXOFDR--7" value="" style="endArrow=none;html=1;rounded=0;" edge="1" parent="WIyWlLk6GJQsqaUBKTNV-1" source="17Kr9N83lYtVt4JSZyiP-63" target="eZr9_VNXtuEZq6iqT6nK-14">
          <mxGeometry width="50" height="50" relative="1" as="geometry">
            <mxPoint x="195" y="680" as="sourcePoint" />
            <mxPoint x="342" y="680" as="targetPoint" />
          </mxGeometry>
        </mxCell>
        <mxCell id="eZr9_VNXtuEZq6iqT6nK-14" value="1:N" style="whiteSpace=wrap;html=1;" parent="WIyWlLk6GJQsqaUBKTNV-1" vertex="1">
          <mxGeometry x="250" y="665" width="40" height="30" as="geometry" />
        </mxCell>
        <mxCell id="98H0wpjJwQihkLXOFDR--8" value="" style="endArrow=none;html=1;rounded=0;" edge="1" parent="WIyWlLk6GJQsqaUBKTNV-1" source="17Kr9N83lYtVt4JSZyiP-63" target="17Kr9N83lYtVt4JSZyiP-74">
          <mxGeometry width="50" height="50" relative="1" as="geometry">
            <mxPoint x="55" y="680" as="sourcePoint" />
            <mxPoint x="-140" y="430" as="targetPoint" />
            <Array as="points">
              <mxPoint x="-140" y="680" />
            </Array>
          </mxGeometry>
        </mxCell>
        <mxCell id="17Kr9N83lYtVt4JSZyiP-74" value="N:1" style="whiteSpace=wrap;html=1;" parent="WIyWlLk6GJQsqaUBKTNV-1" vertex="1">
          <mxGeometry x="-160" y="665" width="40" height="30" as="geometry" />
        </mxCell>
        <mxCell id="98H0wpjJwQihkLXOFDR--11" value="" style="endArrow=none;html=1;rounded=0;" edge="1" parent="WIyWlLk6GJQsqaUBKTNV-1" source="17Kr9N83lYtVt4JSZyiP-133" target="eZr9_VNXtuEZq6iqT6nK-22">
          <mxGeometry width="50" height="50" relative="1" as="geometry">
            <mxPoint x="-70" y="165" as="sourcePoint" />
            <mxPoint x="25" y="165" as="targetPoint" />
          </mxGeometry>
        </mxCell>
        <mxCell id="eZr9_VNXtuEZq6iqT6nK-22" value="1:N" style="whiteSpace=wrap;html=1;" parent="WIyWlLk6GJQsqaUBKTNV-1" vertex="1">
          <mxGeometry x="-45" y="150" width="40" height="30" as="geometry" />
        </mxCell>
        <mxCell id="98H0wpjJwQihkLXOFDR--20" value="" style="endArrow=none;html=1;rounded=0;" edge="1" parent="WIyWlLk6GJQsqaUBKTNV-1" source="17Kr9N83lYtVt4JSZyiP-4" target="17Kr9N83lYtVt4JSZyiP-106">
          <mxGeometry width="50" height="50" relative="1" as="geometry">
            <mxPoint x="522" y="156" as="sourcePoint" />
            <mxPoint x="727" y="159" as="targetPoint" />
            <Array as="points" />
          </mxGeometry>
        </mxCell>
        <mxCell id="17Kr9N83lYtVt4JSZyiP-106" value="1:N" style="whiteSpace=wrap;html=1;" parent="WIyWlLk6GJQsqaUBKTNV-1" vertex="1">
          <mxGeometry x="610" y="140" width="40" height="30" as="geometry" />
        </mxCell>
        <mxCell id="98H0wpjJwQihkLXOFDR--21" value="" style="endArrow=none;html=1;rounded=0;" edge="1" parent="WIyWlLk6GJQsqaUBKTNV-1" source="98H0wpjJwQihkLXOFDR--22" target="17Kr9N83lYtVt4JSZyiP-4">
          <mxGeometry width="50" height="50" relative="1" as="geometry">
            <mxPoint x="230" y="330" as="sourcePoint" />
            <mxPoint x="280" y="280" as="targetPoint" />
          </mxGeometry>
        </mxCell>
        <mxCell id="98H0wpjJwQihkLXOFDR--23" value="" style="endArrow=none;html=1;rounded=0;" edge="1" parent="WIyWlLk6GJQsqaUBKTNV-1" source="17Kr9N83lYtVt4JSZyiP-115" target="98H0wpjJwQihkLXOFDR--22">
          <mxGeometry width="50" height="50" relative="1" as="geometry">
            <mxPoint x="159" y="360" as="sourcePoint" />
            <mxPoint x="334" y="227" as="targetPoint" />
          </mxGeometry>
        </mxCell>
        <mxCell id="98H0wpjJwQihkLXOFDR--22" value="1:1" style="whiteSpace=wrap;html=1;" vertex="1" parent="WIyWlLk6GJQsqaUBKTNV-1">
          <mxGeometry x="230" y="270" width="40" height="30" as="geometry" />
        </mxCell>
      </root>
    </mxGraphModel>
  </diagram>
</mxfile>
